<svg width="275" height="92" viewBox="0 0 275 92" fill="none" xmlns="http://www.w3.org/2000/svg">
<g clip-path="url(#clip0_2602_74033)">
<path d="M0 6.01902C0.568359 6.01902 1.13517 6.00975 1.6989 6.00975H20.8131C21.8463 6.00975 21.7397 5.89546 21.7397 6.90553C21.7397 25.6943 21.7423 44.4826 21.7474 63.2704C21.7474 63.6287 21.5776 64.075 21.8571 64.3283C22.098 64.5492 22.5181 64.4071 22.8579 64.4071C31.8477 64.4071 40.8369 64.4071 49.8256 64.4071C50.048 64.4071 50.2704 64.4071 50.4928 64.4071C50.7754 64.4179 50.8326 64.4689 50.828 64.7685C50.811 65.9052 50.7847 67.0404 50.7585 68.1755C50.7476 68.6389 50.7214 69.113 50.7106 69.581C50.6364 73.0117 50.5628 76.4425 50.4897 79.8732C50.4712 80.7119 50.4388 81.5505 50.4079 82.3892C50.3924 82.8139 50.3739 82.8293 49.926 82.8386C49.7036 82.8386 49.4812 82.8386 49.2588 82.8386C33.1584 82.8386 17.0569 82.8386 0.954471 82.8386C0.636314 82.8386 0.31198 82.7845 0 82.8957V6.01902Z" fill="white"/>
<path d="M109.363 91.4999C109.363 91.205 109.374 90.91 109.374 90.615C109.374 72.9783 109.374 55.3427 109.374 37.7082C109.374 37.1182 109.329 36.522 109.504 35.9444C109.836 35.9599 110.122 35.807 110.423 35.6973C110.977 35.4965 111.519 35.2587 112.077 35.0687C114.406 34.2795 116.678 33.3374 118.97 32.4555C121.904 31.3249 124.82 30.1388 127.745 28.9805C127.826 29.4911 127.858 30.0082 127.841 30.5249V41.628C127.841 51.2994 127.844 60.9707 127.849 70.6421C127.849 74.6144 127.854 78.5868 127.864 82.5591C127.864 82.7815 127.864 83.0039 127.864 83.2248C127.865 83.4986 127.784 83.7665 127.632 83.9942C127.48 84.222 127.263 84.3993 127.01 84.5036C126.856 84.5762 126.692 84.6364 126.531 84.6997C121.28 86.7878 116.035 88.877 110.795 90.9671C110.366 91.1385 109.901 91.2235 109.515 91.4969L109.363 91.4999Z" fill="#23B0A8"/>
<path d="M127.749 28.9805C124.823 30.142 121.909 31.325 118.973 32.4556C116.681 33.3374 114.409 34.2795 112.08 35.0688C111.522 35.2587 110.98 35.4966 110.426 35.6974C110.128 35.807 109.839 35.9599 109.507 35.9445C109.412 35.7154 109.374 35.467 109.396 35.2201C109.383 34.6271 109.374 34.0355 109.374 33.4425C109.374 25.1467 109.371 16.8519 109.363 8.55822C109.363 8.33582 109.363 8.11342 109.363 7.89256C109.361 7.63097 109.437 7.37459 109.581 7.15655C109.726 6.9385 109.932 6.76879 110.174 6.66935C110.398 6.56433 110.638 6.47785 110.858 6.38672L124.958 0.781895C125.532 0.55486 126.105 0.327829 126.67 0.080716C127.001 -0.0737293 127.372 -0.161765 127.585 -0.5H127.881C127.872 -0.402699 127.854 -0.305398 127.854 -0.209642C127.854 9.05708 127.85 18.3238 127.844 27.5905C127.849 28.0569 127.931 28.5295 127.749 28.9805Z" fill="#6DD0CD"/>
<path d="M84.7617 91.5001C84.7787 91.443 84.7942 91.3843 84.8111 91.3271L85.2096 91.358C85.2011 91.405 85.2011 91.4531 85.2096 91.5001H84.7617Z" fill="#73CFEB"/>
<path d="M202.168 82.8726C202.074 82.6795 202.201 82.5359 202.275 82.3892C202.687 81.5758 203.104 80.7634 203.527 79.952L221.789 44.8929C221.943 44.6072 222.087 44.323 222.215 44.0296C222.336 43.7713 222.397 43.4889 222.393 43.2037C222.389 42.9185 222.32 42.638 222.192 42.3832C222.084 42.1629 221.971 41.9436 221.852 41.7253C215.609 30.3138 209.366 18.9044 203.124 7.4971C202.911 7.10635 202.713 6.70943 202.507 6.31559C202.479 6.27333 202.463 6.22508 202.459 6.17502C202.454 6.12496 202.462 6.07461 202.482 6.02832C202.741 5.93875 203.015 5.98199 203.283 5.98199C208.226 5.98199 213.165 5.98199 218.102 5.98199C220.794 5.98199 223.486 5.96809 226.178 5.96191C226.425 5.96191 226.673 5.97117 226.918 5.98353C227.13 5.98906 227.336 6.05207 227.514 6.1658C227.693 6.27953 227.837 6.4397 227.931 6.62912C228.073 6.88859 228.199 7.15732 228.322 7.42605C231.451 14.2155 234.579 21.0054 237.706 27.7959C237.893 28.199 238.092 28.5959 238.284 28.9959C238.336 29.1055 238.384 29.2183 238.519 29.2569C238.698 29.0762 238.764 28.8322 238.869 28.6113C242.225 21.5192 245.579 14.4265 248.931 7.33339C249.015 7.15423 249.086 6.97198 249.188 6.79901C249.472 6.28779 249.881 5.99744 250.499 6.00207C251.889 6.01288 253.265 5.9928 254.647 5.99126C260.748 5.99126 266.848 5.99126 272.948 5.99126C273.12 5.99126 273.293 5.99125 273.466 6.00361C273.639 6.01596 273.735 6.1318 273.65 6.30015C273.487 6.63066 273.315 6.95963 273.133 7.28242L254.392 40.4032C254.223 40.7121 254.057 41.0071 253.878 41.3036C253.387 42.116 253.382 42.9238 253.844 43.7593C254.357 44.686 254.839 45.6327 255.331 46.5733C260.583 56.5814 265.834 66.5899 271.085 76.599C272.012 78.369 272.938 80.14 273.865 81.912C274.361 82.8664 274.328 82.9112 273.247 82.9128C267.79 82.9128 262.333 82.9128 256.876 82.9128C255.073 82.9128 253.271 82.9128 251.47 82.9128C251.297 82.9128 251.124 82.9128 250.951 82.9128C250.715 82.9245 250.48 82.8621 250.281 82.7341C250.082 82.6062 249.927 82.4192 249.839 82.1992C249.753 82.0216 249.668 81.844 249.588 81.6633C246.075 73.8031 242.561 65.9423 239.048 58.081C238.882 57.675 238.684 57.2825 238.457 56.9072C238.239 56.9335 238.217 57.1034 238.165 57.2161C237.715 58.1768 237.269 59.139 236.838 60.1089C233.67 67.2597 230.504 74.4111 227.341 81.5629C227.237 81.813 227.116 82.056 226.98 82.2903C226.875 82.474 226.725 82.6274 226.543 82.7357C226.362 82.8439 226.155 82.9034 225.944 82.9081C225.672 82.9205 225.4 82.922 225.128 82.922L202.9 82.9066C202.656 82.9358 202.409 82.9244 202.168 82.8726Z" fill="white"/>
<path d="M139.715 44.4138C139.715 31.945 139.715 19.4766 139.715 7.00872C139.715 5.87509 139.573 6.02954 140.694 6.02954C157.733 6.02954 174.774 6.02954 191.815 6.02954C192.063 6.02954 192.31 6.02954 192.555 6.04808C192.605 6.04929 192.653 6.07026 192.688 6.10643C192.722 6.14259 192.741 6.19101 192.741 6.24113C192.751 6.41257 192.758 6.58554 192.758 6.75852V23.3475C192.758 24.163 192.815 24.1197 192.002 24.1197H162.145C161.898 24.1197 161.651 24.1197 161.405 24.1336C161.355 24.1339 161.307 24.153 161.271 24.1871C161.235 24.2211 161.212 24.2677 161.209 24.3174C161.194 24.4642 161.187 24.6116 161.187 24.7591C161.187 28.0673 161.187 31.3761 161.187 34.6853C161.183 34.8084 161.187 34.9317 161.197 35.0545C161.199 35.1169 161.225 35.1759 161.271 35.2188C161.316 35.2616 161.377 35.2847 161.439 35.283C161.685 35.283 161.932 35.2938 162.179 35.2938H186.331C186.578 35.2938 186.825 35.2938 187.072 35.2938C187.11 35.29 187.147 35.2946 187.182 35.3075C187.218 35.3203 187.249 35.3409 187.276 35.3679C187.302 35.3948 187.321 35.4273 187.333 35.4629C187.344 35.4985 187.348 35.5363 187.343 35.5734C187.343 35.7711 187.343 35.9688 187.343 36.1665V50.9793C187.343 51.7515 187.383 51.7037 186.618 51.7037C178.492 51.7037 170.368 51.7037 162.244 51.7037C161.022 51.7037 161.178 51.5492 161.177 52.757C161.17 56.5079 161.17 60.2605 161.177 64.0145C161.177 64.9412 161.088 64.847 162.009 64.8485C172.48 64.8485 182.951 64.8485 193.422 64.8485C194.517 64.8485 194.393 64.7157 194.371 65.8509C194.333 67.8988 194.292 69.9473 194.246 71.9962C194.174 75.4115 194.096 78.8181 194.012 82.2159C194.012 82.3147 194.012 82.4151 194.002 82.5124C193.984 82.7642 193.931 82.8213 193.693 82.8368C193.456 82.8522 193.201 82.8368 192.954 82.8368H140.802C140.58 82.8368 140.357 82.8368 140.135 82.8368C139.76 82.8244 139.727 82.7904 139.716 82.4012C139.716 82.2035 139.716 82.0058 139.716 81.8081L139.715 44.4138Z" fill="white"/>
<path d="M78.8182 20.8398C78.8352 21.2337 78.8676 21.6275 78.8676 22.0229C78.8676 42.4406 78.8676 62.8593 78.8676 83.279V83.4335C78.8676 84.1362 78.8491 84.025 78.3286 84.2304C74.1997 85.8675 70.0694 87.4995 65.9374 89.1263L61.2547 90.9797C61.1404 91.026 61.0261 91.0723 60.9102 91.1156C60.5133 91.2607 60.4763 91.2407 60.4469 90.853C60.4469 90.6986 60.4361 90.5565 60.4346 90.4082C60.4346 90.1858 60.4346 89.9634 60.4346 89.7425C60.4346 69.5699 60.4346 49.3978 60.4346 29.2262C60.4346 28.8077 60.399 28.3861 60.4902 27.9721C60.6343 27.9482 60.7767 27.9146 60.9164 27.8717C61.352 27.7049 61.7829 27.5242 62.2153 27.3513C64.2921 26.5111 66.3689 25.6745 68.4456 24.8415C69.8125 24.2948 71.1793 23.745 72.5508 23.2059C73.7168 22.7426 74.886 22.3024 76.0567 21.8546C76.9726 21.5055 77.873 21.1101 78.8182 20.8398Z" fill="#23B0A8"/>
<path d="M85.2113 91.3575L84.8128 91.3266C84.8128 91.0548 84.8128 90.783 84.8128 90.5111C84.8128 79.0317 84.8128 67.5513 84.8128 56.0698C84.8128 55.7501 84.7618 55.4273 84.8699 55.1138C85.012 55.0737 85.1587 55.0443 85.2947 54.9918L90.3018 53.0103C94.4615 51.3628 98.6207 49.7123 102.779 48.0587C102.91 47.9886 103.06 47.9646 103.206 47.9908C103.216 49.4472 103.235 50.9021 103.238 52.357C103.248 60.594 103.257 68.8342 103.264 77.0775C103.264 79.2243 103.264 81.3711 103.257 83.5179C103.257 83.6893 103.257 83.8623 103.247 84.0352C103.246 84.0842 103.231 84.1318 103.204 84.1724C103.177 84.213 103.138 84.2447 103.093 84.2638C102.891 84.3534 102.687 84.4414 102.475 84.5233L85.6283 91.1953L85.2113 91.3575Z" fill="#276FDD"/>
<path d="M103.2 47.9915C103.054 47.9653 102.904 47.9893 102.774 48.0595C98.6159 49.7069 94.4567 51.3574 90.296 53.011L85.2889 54.9925C85.1529 55.045 85.0062 55.0744 84.8641 55.1145C84.7576 54.8798 84.7869 54.6296 84.7869 54.3855C84.7869 47.1307 84.7869 39.8769 84.7869 32.6242C84.7869 32.5253 84.7869 32.4265 84.7869 32.3277C84.8162 31.645 85.1236 31.1848 85.7846 30.9253C88.4905 29.8596 91.1902 28.7631 93.8899 27.6958C96.6627 26.5962 99.4366 25.5012 102.211 24.4108C102.412 24.3155 102.627 24.2539 102.848 24.2285C103.116 24.2131 103.228 24.2857 103.246 24.5374C103.257 24.6919 103.254 24.834 103.254 24.9807C103.254 32.4332 103.254 39.8847 103.254 47.3351C103.251 47.5513 103.218 47.7753 103.2 47.9915Z" fill="#89CFE9"/>
<path d="M78.8189 20.8402C77.8737 21.1105 76.9733 21.5059 76.0574 21.8549C74.8867 22.3028 73.7176 22.7476 72.5515 23.2063C71.18 23.7453 69.8101 24.2998 68.4463 24.8419C66.3696 25.6728 64.2959 26.5053 62.2253 27.3393C61.7928 27.5122 61.3619 27.6929 60.9264 27.8597C60.7867 27.9026 60.6443 27.9362 60.5001 27.9601C60.4847 27.6898 60.4584 27.4196 60.4584 27.1493C60.4461 20.78 60.4363 14.4111 60.4291 8.04285C60.4291 7.99343 60.4291 7.94246 60.4291 7.88841C60.3426 7.18259 60.6901 6.79802 61.328 6.55554C63.0562 5.89606 64.7736 5.20724 66.4942 4.52459C70.1864 3.06354 73.8787 1.59888 77.571 0.130622C77.9123 -0.00529003 78.2335 -0.19063 78.5687 -0.348164C78.597 -0.3597 78.6274 -0.364741 78.6579 -0.362917C78.6884 -0.361093 78.7181 -0.35245 78.7447 -0.337625C78.7714 -0.322801 78.7944 -0.302174 78.8121 -0.277267C78.8297 -0.25236 78.8416 -0.223808 78.8467 -0.193719C78.8591 -0.0392736 78.8637 0.102817 78.8637 0.251084L78.8405 20.5421C78.8405 20.644 78.8266 20.7475 78.8189 20.8402Z" fill="#6DD0CD"/>
</g>
<defs>
<clipPath id="clip0_2602_74033">
<rect width="274.168" height="92" fill="white" transform="translate(0 -0.5)"/>
</clipPath>
</defs>
</svg>
